# xmcd CD database file
#
# Track frame offsets:
#	150
#	16817
#	40658
#	67522
#	90144
#	116099
#	146122
#	169037
#	183554
#	208550
#	234845
#	262159
#
# Disc length: 3835 seconds
#
# Revision: 0
# Processed by: cddbd v1.5.2PL0 Copyright (c) Steve Scherf et al.
# Submitted via: CDex 1.51
#
DISCID=940ef90c
DTITLE=John-Paul Gard - Pedal Mania - Beef Dumplin' Stew
DYEAR=2004
DGENRE=Jazz
TTITLE0=Beef Dumplin' Stew
TTITLE1=Les is Mo
TTITLE2=Boomtown
TTITLE3=Goodbye Pork Pie Hat
TTITLE4=Timeline
TTITLE5=Travels
TTITLE6=Transglobal Express
TTITLE7=The Upton Muggery
TTITLE8=10 p.m.
TTITLE9=My One and Only Love
TTITLE10=Pee Wee's Blues (for Paa Wee Ellis)
TTITLE11=My One and Only Love (with Ben Waghorn)
EXTD=YEAR: 2004
EXTT0=
EXTT1=
EXTT2=
EXTT3=
EXTT4=
EXTT5=
EXTT6=
EXTT7=
EXTT8=
EXTT9=
EXTT10=
EXTT11=
PLAYORDER=
